<svg width="38" height="10" viewBox="0 0 38 10" fill="none" xmlns="http://www.w3.org/2000/svg">
<path d="M0.990234 9V0.46875H3.7793C4.70508 0.46875 5.40039 0.660156 5.86523 1.04297C6.33398 1.42578 6.56836 1.99219 6.56836 2.74219C6.56836 3.14062 6.45508 3.49414 6.22852 3.80273C6.00195 4.10742 5.69336 4.34375 5.30273 4.51172C5.76367 4.64062 6.12695 4.88672 6.39258 5.25C6.66211 5.60938 6.79688 6.03906 6.79688 6.53906C6.79688 7.30469 6.54883 7.90625 6.05273 8.34375C5.55664 8.78125 4.85547 9 3.94922 9H0.990234ZM2.11523 5.00977V8.08008H3.97266C4.49609 8.08008 4.9082 7.94531 5.20898 7.67578C5.51367 7.40234 5.66602 7.02734 5.66602 6.55078C5.66602 5.52344 5.10742 5.00977 3.99023 5.00977H2.11523ZM2.11523 4.10742H3.81445C4.30664 4.10742 4.69922 3.98438 4.99219 3.73828C5.28906 3.49219 5.4375 3.1582 5.4375 2.73633C5.4375 2.26758 5.30078 1.92773 5.02734 1.7168C4.75391 1.50195 4.33789 1.39453 3.7793 1.39453H2.11523V4.10742ZM9.59766 8.08008H13.6406V9H8.4668V0.46875H9.59766V8.08008ZM19.752 6.77344H16.1777L15.375 9H14.2148L17.4727 0.46875H18.457L21.7207 9H20.5664L19.752 6.77344ZM16.5176 5.84766H19.418L17.9648 1.85742L16.5176 5.84766ZM29.0742 6.29297C28.9688 7.19531 28.6348 7.89258 28.0723 8.38477C27.5137 8.87305 26.7695 9.11719 25.8398 9.11719C24.832 9.11719 24.0234 8.75586 23.4141 8.0332C22.8086 7.31055 22.5059 6.34375 22.5059 5.13281V4.3125C22.5059 3.51953 22.6465 2.82227 22.9277 2.2207C23.2129 1.61914 23.6152 1.1582 24.1348 0.837891C24.6543 0.513672 25.2559 0.351562 25.9395 0.351562C26.8457 0.351562 27.5723 0.605469 28.1191 1.11328C28.666 1.61719 28.9844 2.31641 29.0742 3.21094H27.9434C27.8457 2.53125 27.6328 2.03906 27.3047 1.73438C26.9805 1.42969 26.5254 1.27734 25.9395 1.27734C25.2207 1.27734 24.6562 1.54297 24.2461 2.07422C23.8398 2.60547 23.6367 3.36133 23.6367 4.3418V5.16797C23.6367 6.09375 23.8301 6.83008 24.2168 7.37695C24.6035 7.92383 25.1445 8.19727 25.8398 8.19727C26.4648 8.19727 26.9434 8.05664 27.2754 7.77539C27.6113 7.49023 27.834 6.99609 27.9434 6.29297H29.0742ZM32.7832 5.0332L31.7402 6.11719V9H30.6152V0.46875H31.7402V4.6875L35.5312 0.46875H36.8906L33.5332 4.23633L37.1543 9H35.8066L32.7832 5.0332Z" fill="white"/>
</svg>
