<svg width="31" height="10" viewBox="0 0 31 10" fill="none" xmlns="http://www.w3.org/2000/svg">
<path d="M2.12109 8.08008H6.16406V9H0.990234V0.46875H2.12109V8.08008ZM8.6543 9H7.5293V0.46875H8.6543V9ZM13.541 7.50586L15.9785 0.46875H17.209L14.0449 9H13.0488L9.89062 0.46875H11.1152L13.541 7.50586ZM23.1797 5.05664H19.4824V8.08008H23.7773V9H18.3574V0.46875H23.7188V1.39453H19.4824V4.13672H23.1797V5.05664ZM27.6914 5.19727C26.7266 4.91992 26.0234 4.58008 25.582 4.17773C25.1445 3.77148 24.9258 3.27148 24.9258 2.67773C24.9258 2.00586 25.1934 1.45117 25.7285 1.01367C26.2676 0.572266 26.9668 0.351562 27.8262 0.351562C28.4121 0.351562 28.9336 0.464844 29.3906 0.691406C29.8516 0.917969 30.207 1.23047 30.457 1.62891C30.7109 2.02734 30.8379 2.46289 30.8379 2.93555H29.707C29.707 2.41992 29.543 2.01562 29.2148 1.72266C28.8867 1.42578 28.4238 1.27734 27.8262 1.27734C27.2715 1.27734 26.8379 1.40039 26.5254 1.64648C26.2168 1.88867 26.0625 2.22656 26.0625 2.66016C26.0625 3.00781 26.209 3.30273 26.502 3.54492C26.7988 3.7832 27.3008 4.00195 28.0078 4.20117C28.7188 4.40039 29.2734 4.62109 29.6719 4.86328C30.0742 5.10156 30.3711 5.38086 30.5625 5.70117C30.7578 6.02148 30.8555 6.39844 30.8555 6.83203C30.8555 7.52344 30.5859 8.07812 30.0469 8.49609C29.5078 8.91016 28.7871 9.11719 27.8848 9.11719C27.2988 9.11719 26.752 9.00586 26.2441 8.7832C25.7363 8.55664 25.3438 8.24805 25.0664 7.85742C24.793 7.4668 24.6562 7.02344 24.6562 6.52734H25.7871C25.7871 7.04297 25.9766 7.45117 26.3555 7.75195C26.7383 8.04883 27.248 8.19727 27.8848 8.19727C28.4785 8.19727 28.9336 8.07617 29.25 7.83398C29.5664 7.5918 29.7246 7.26172 29.7246 6.84375C29.7246 6.42578 29.5781 6.10352 29.2852 5.87695C28.9922 5.64648 28.4609 5.41992 27.6914 5.19727Z" fill="white"/>
</svg>
