<svg width="47" height="9" viewBox="0 0 47 9" fill="none" xmlns="http://www.w3.org/2000/svg">
<path d="M2.44336 0.46875L5.23242 7.42969L8.02148 0.46875H9.48047V9H8.35547V5.67773L8.46094 2.0918L5.66016 9H4.79883L2.00391 2.10938L2.11523 5.67773V9H0.990234V0.46875H2.44336ZM16.2832 6.77344H12.709L11.9062 9H10.7461L14.0039 0.46875H14.9883L18.252 9H17.0977L16.2832 6.77344ZM13.0488 5.84766H15.9492L14.4961 1.85742L13.0488 5.84766ZM24.5332 1.39453H21.791V9H20.6719V1.39453H17.9355V0.46875H24.5332V1.39453ZM31.7871 1.39453H29.0449V9H27.9258V1.39453H25.1895V0.46875H31.7871V1.39453ZM37.875 5.05664H34.1777V8.08008H38.4727V9H33.0527V0.46875H38.4141V1.39453H34.1777V4.13672H37.875V5.05664ZM43.002 5.54883H40.998V9H39.8672V0.46875H42.6914C43.6523 0.46875 44.3906 0.6875 44.9062 1.125C45.4258 1.5625 45.6855 2.19922 45.6855 3.03516C45.6855 3.56641 45.541 4.0293 45.252 4.42383C44.9668 4.81836 44.5684 5.11328 44.0566 5.30859L46.0605 8.92969V9H44.8535L43.002 5.54883ZM40.998 4.62891H42.7266C43.2852 4.62891 43.7285 4.48438 44.0566 4.19531C44.3887 3.90625 44.5547 3.51953 44.5547 3.03516C44.5547 2.50781 44.3965 2.10352 44.0801 1.82227C43.7676 1.54102 43.3145 1.39844 42.7207 1.39453H40.998V4.62891Z" fill="white"/>
</svg>
